%
M48
M72
T01C0.02400
T02C0.03200
T03C0.03937
T04C0.04000
T05C0.04400
%
T01
X66900Y28500
X71900Y18500
X131275Y69750
X143150Y82875
X143150Y91000
X121275Y89750
X104400Y81000
X106275Y102250
X98775Y128500
X90650Y150375
X76900Y164750
X76900Y169750
X110650Y181000
X118150Y166000
X123775Y154750
X131275Y152250
X145025Y148500
X163775Y152250
X163775Y157250
X173150Y159750
X180650Y163500
X171275Y169750
X180650Y182250
X188150Y186000
X203150Y176000
X214400Y166625
X228775Y142875
X245025Y155375
X252525Y141000
X248775Y137875
X254400Y132250
X245025Y127875
X250025Y116625
X256275Y104125
X260025Y96625
X265025Y96625
X274400Y95375
X276275Y77250
X286275Y56625
X290025Y39125
X282525Y35375
X256275Y51000
X247525Y55375
X249400Y41625
X222525Y61000
X221275Y51625
X213775Y41625
X212525Y26625
X184400Y40375
X180650Y56625
X184400Y64125
X166900Y79125
X173150Y82875
X167525Y84125
X176900Y91625
X193775Y96625
X201275Y86625
X212525Y71000
X217525Y71000
X226900Y81000
X241275Y102250
X252525Y90375
X221275Y106625
X198150Y129750
X191900Y132250
X184400Y141000
X180650Y137250
X181900Y121000
X135650Y121000
X61900Y121000
X57525Y118500
X53775Y128500
X17525Y81625
X53150Y73500
X63150Y71625
X13150Y195375
X17525Y201000
X57525Y207250
X66900Y229125
X72525Y243500
X86275Y236000
X114400Y209750
X121900Y197875
X126900Y197875
X167525Y201000
X173150Y201000
X167525Y208500
X176900Y219125
X176900Y224125
X182525Y219125
X191900Y219125
X176275Y232250
X190025Y243500
X168150Y260375
X161900Y260375
X164400Y249750
X155025Y247250
X145650Y256625
X133150Y242875
X129400Y239125
X90650Y265375
X90650Y304125
X151275Y286625
X156900Y281000
X203150Y290375
X203150Y295375
X223150Y305375
X232525Y302250
X248775Y294125
X232525Y286000
X236900Y276000
X229400Y264125
X214400Y264125
X221275Y242250
X221275Y237250
X216275Y227875
X233775Y227875
X238150Y235375
X248775Y237875
X267525Y241625
X252525Y255375
X266900Y267875
X283775Y260375
X300650Y270375
X311275Y247250
X315025Y242875
X315025Y237875
X320650Y226625
X315025Y221625
X316900Y214125
X310025Y202250
X327525Y194125
X335025Y201625
X348775Y200375
X360650Y200375
X352525Y178500
X346900Y177875
X331900Y168500
X341275Y162250
X336275Y141625
X345025Y131000
X356900Y129750
X371275Y149750
X330650Y122875
X322525Y105375
X306275Y109750
X288775Y128500
X290025Y134750
X298150Y138500
X280650Y125375
X285025Y160375
X300650Y176000
X293150Y184750
X291275Y189750
X275025Y182250
X261900Y199125
X265650Y202250
X283775Y209750
X295025Y226000
X296900Y240375
X335025Y228500
X345025Y224125
X351275Y236625
X341275Y252250
X335025Y264125
X371275Y252250
X370025Y289750
X366275Y293500
X346275Y295375
X325025Y293500
X317525Y293500
X290650Y307250
X212525Y208500
X217525Y203500
X221275Y196000
X245025Y195375
X316900Y172250
X309400Y77875
X344400Y66625
X361275Y19750
T02
X356900Y26000
X346900Y26000
X336900Y26000
X326900Y26000
X326900Y56000
X336900Y56000
X346900Y56000
X356900Y56000
X366900Y56000
X376900Y56000
X386900Y56000
X386900Y26000
X376900Y26000
X366900Y26000
X366900Y86000
X356900Y86000
X346900Y86000
X336900Y86000
X326900Y86000
X306900Y86000
X306900Y101000
X306900Y116000
X306900Y131000
X306900Y146000
X306900Y161000
X306900Y176000
X326900Y186000
X336900Y186000
X346900Y186000
X356900Y186000
X366900Y186000
X376900Y186000
X386900Y186000
X386900Y156000
X376900Y156000
X366900Y156000
X356900Y156000
X346900Y156000
X336900Y156000
X326900Y156000
X306900Y196000
X306900Y211000
X306900Y226000
X306900Y241000
X306900Y256000
X306900Y271000
X306900Y286000
X306900Y301000
X326900Y306000
X336900Y306000
X346900Y306000
X356900Y306000
X366900Y306000
X376900Y306000
X386900Y306000
X386900Y276000
X376900Y276000
X366900Y276000
X356900Y276000
X346900Y276000
X336900Y276000
X326900Y276000
X326900Y246000
X336900Y246000
X346900Y246000
X356900Y246000
X366900Y246000
X376900Y246000
X386900Y246000
X386900Y216000
X376900Y216000
X366900Y216000
X356900Y216000
X346900Y216000
X336900Y216000
X326900Y216000
X276900Y211000
X266900Y211000
X266900Y196000
X276900Y196000
X266900Y181000
X276900Y176000
X266900Y166000
X276900Y161000
X266900Y151000
X276900Y146000
X266900Y136000
X276900Y131000
X266900Y121000
X276900Y116000
X266900Y106000
X276900Y101000
X266900Y91000
X276900Y86000
X266900Y71000
X266900Y61000
X266900Y51000
X266900Y41000
X266900Y31000
X266900Y21000
X266900Y11000
X236900Y11000
X236900Y21000
X236900Y31000
X236900Y41000
X236900Y51000
X236900Y61000
X236900Y71000
X236900Y91000
X226900Y91000
X226900Y106000
X236900Y106000
X236900Y121000
X226900Y121000
X226900Y136000
X236900Y136000
X236900Y151000
X226900Y151000
X226900Y166000
X236900Y166000
X236900Y181000
X226900Y181000
X226900Y196000
X236900Y196000
X236900Y211000
X226900Y211000
X226900Y226000
X241900Y226000
X241900Y241000
X226900Y241000
X226900Y256000
X241900Y256000
X241900Y271000
X226900Y271000
X226900Y286000
X241900Y286000
X241900Y301000
X226900Y301000
X206900Y301000
X191900Y301000
X191900Y286000
X191900Y271000
X206900Y271000
X206900Y286000
X206900Y256000
X191900Y256000
X171900Y256000
X171900Y271000
X171900Y286000
X171900Y301000
X126900Y281000
X126900Y261000
X96900Y261000
X81900Y271000
X71900Y271000
X51900Y271000
X41900Y271000
X21900Y271000
X11900Y271000
X11900Y246000
X41900Y246000
X96900Y281000
X206900Y241000
X206900Y226000
X206900Y211000
X206900Y196000
X206900Y181000
X206900Y166000
X206900Y151000
X206900Y136000
X206900Y121000
X206900Y106000
X206900Y91000
X196900Y71000
X196900Y61000
X196900Y51000
X196900Y41000
X196900Y31000
X196900Y21000
X196900Y11000
X166900Y11000
X166900Y21000
X166900Y31000
X166900Y41000
X166900Y51000
X166900Y61000
X166900Y71000
X121900Y111000
X91900Y111000
X81900Y111000
X81900Y96000
X51900Y96000
X41900Y96000
X41900Y111000
X51900Y111000
X46900Y136000
X56900Y136000
X76900Y136000
X86900Y136000
X106900Y136000
X116900Y136000
X136900Y136000
X146900Y136000
X261900Y226000
X276900Y226000
X276900Y241000
X261900Y241000
X261900Y256000
X276900Y256000
X276900Y271000
X261900Y271000
X261900Y286000
X276900Y286000
X276900Y301000
X261900Y301000
X326900Y116000
X336900Y116000
X346900Y116000
X356900Y116000
X366900Y116000
X376900Y116000
X386900Y116000
X386900Y86000
X376900Y86000
X26900Y136000
X16900Y136000
X11900Y111000
X11900Y96000
T03
X11900Y301000
X21900Y301000
T04
X9100Y7100
X9100Y24900
X9100Y37100
X9100Y54900
X9100Y67100
X9100Y84900
X34700Y84900
X49100Y84900
X49100Y67100
X49100Y54900
X34700Y54900
X34700Y67100
X34700Y37100
X34700Y24900
X49100Y24900
X49100Y37100
X74700Y37100
X74700Y24900
X89100Y24900
X89100Y37100
X89100Y54900
X89100Y67100
X74700Y67100
X74700Y54900
X74700Y84900
X89100Y84900
X114700Y84900
X114700Y67100
X114700Y54900
X114700Y37100
X114700Y24900
X114700Y7100
X89100Y7100
X74700Y7100
X49100Y7100
X34700Y7100
X46900Y301000
X56900Y301000
X66900Y301000
X96900Y301000
X106900Y301000
X116900Y301000
T05
X136900Y306000
X151900Y306000
X151900Y266000
X136900Y266000
X146900Y246000
X156900Y241000
X146900Y231000
X156900Y226000
X146900Y216000
X156900Y211000
X146900Y201000
X156900Y196000
X146900Y186000
X156900Y181000
X146900Y171000
X156900Y166000
X146900Y156000
X156900Y151000
X156900Y136000
X156900Y121000
X156900Y106000
X146900Y96000
X156900Y91000
X196900Y91000
X196900Y106000
X196900Y121000
X196900Y136000
X196900Y151000
X196900Y166000
X196900Y181000
X196900Y196000
X196900Y211000
X196900Y226000
X196900Y241000
X106900Y246000
X96900Y246000
X96900Y231000
X106900Y231000
X106900Y216000
X96900Y216000
X96900Y201000
X106900Y201000
X106900Y186000
X96900Y186000
X96900Y171000
X106900Y171000
X106900Y156000
X96900Y156000
X56900Y156000
X46900Y156000
X46900Y171000
X56900Y171000
X56900Y186000
X46900Y186000
X46900Y201000
X56900Y201000
X56900Y216000
X46900Y216000
X46900Y231000
X56900Y231000
X56900Y246000
X6900Y231000
X6900Y216000
X6900Y201000
X6900Y186000
X6900Y171000
X6900Y156000
X106900Y96000
M30
