G75*
%MOIN*%
%OFA0B0*%
%FSLAX25Y25*%
%IPPOS*%
%LPD*%
%AMOC8*
5,1,8,0,0,1.08239X$1,22.5*
%
%ADD10C,0.00000*%
%ADD11OC8,0.05200*%
%ADD12OC8,0.06300*%
%ADD13C,0.06300*%
%ADD14C,0.06600*%
%ADD15C,0.05200*%
%ADD16C,0.06000*%
%ADD17C,0.05937*%
%ADD18C,0.01000*%
%ADD19C,0.04000*%
D10*
X0001900Y0001000D02*
X0001900Y0315961D01*
X0395601Y0315961D01*
X0395601Y0001000D01*
X0001900Y0001000D01*
D11*
X0011900Y0096000D03*
X0011900Y0111000D03*
X0041900Y0111000D03*
X0051900Y0111000D03*
X0051900Y0096000D03*
X0041900Y0096000D03*
X0081900Y0096000D03*
X0081900Y0111000D03*
X0091900Y0111000D03*
X0121900Y0111000D03*
X0116900Y0136000D03*
X0106900Y0136000D03*
X0086900Y0136000D03*
X0076900Y0136000D03*
X0056900Y0136000D03*
X0046900Y0136000D03*
X0026900Y0136000D03*
X0016900Y0136000D03*
X0136900Y0136000D03*
X0146900Y0136000D03*
X0206900Y0136000D03*
X0206900Y0151000D03*
X0206900Y0166000D03*
X0206900Y0181000D03*
X0206900Y0196000D03*
X0206900Y0211000D03*
X0206900Y0226000D03*
X0206900Y0241000D03*
X0206900Y0256000D03*
X0191900Y0256000D03*
X0191900Y0271000D03*
X0191900Y0286000D03*
X0206900Y0286000D03*
X0206900Y0271000D03*
X0226900Y0271000D03*
X0241900Y0271000D03*
X0241900Y0286000D03*
X0226900Y0286000D03*
X0226900Y0301000D03*
X0241900Y0301000D03*
X0261900Y0301000D03*
X0276900Y0301000D03*
X0276900Y0286000D03*
X0261900Y0286000D03*
X0261900Y0271000D03*
X0276900Y0271000D03*
X0276900Y0256000D03*
X0261900Y0256000D03*
X0261900Y0241000D03*
X0276900Y0241000D03*
X0276900Y0226000D03*
X0261900Y0226000D03*
X0266900Y0211000D03*
X0276900Y0211000D03*
X0276900Y0196000D03*
X0266900Y0196000D03*
X0266900Y0181000D03*
X0276900Y0176000D03*
X0266900Y0166000D03*
X0276900Y0161000D03*
X0266900Y0151000D03*
X0276900Y0146000D03*
X0266900Y0136000D03*
X0276900Y0131000D03*
X0266900Y0121000D03*
X0276900Y0116000D03*
X0266900Y0106000D03*
X0276900Y0101000D03*
X0266900Y0091000D03*
X0276900Y0086000D03*
X0306900Y0086000D03*
X0306900Y0101000D03*
X0306900Y0116000D03*
X0306900Y0131000D03*
X0306900Y0146000D03*
X0306900Y0161000D03*
X0306900Y0176000D03*
X0306900Y0196000D03*
X0306900Y0211000D03*
X0306900Y0226000D03*
X0306900Y0241000D03*
X0306900Y0256000D03*
X0306900Y0271000D03*
X0306900Y0286000D03*
X0306900Y0301000D03*
X0241900Y0256000D03*
X0226900Y0256000D03*
X0226900Y0241000D03*
X0241900Y0241000D03*
X0241900Y0226000D03*
X0226900Y0226000D03*
X0226900Y0211000D03*
X0236900Y0211000D03*
X0236900Y0196000D03*
X0226900Y0196000D03*
X0226900Y0181000D03*
X0236900Y0181000D03*
X0236900Y0166000D03*
X0226900Y0166000D03*
X0226900Y0151000D03*
X0236900Y0151000D03*
X0236900Y0136000D03*
X0226900Y0136000D03*
X0226900Y0121000D03*
X0236900Y0121000D03*
X0236900Y0106000D03*
X0226900Y0106000D03*
X0226900Y0091000D03*
X0236900Y0091000D03*
X0206900Y0091000D03*
X0206900Y0106000D03*
X0206900Y0121000D03*
X0171900Y0256000D03*
X0171900Y0271000D03*
X0171900Y0286000D03*
X0171900Y0301000D03*
X0191900Y0301000D03*
X0206900Y0301000D03*
X0126900Y0281000D03*
X0126900Y0261000D03*
X0096900Y0261000D03*
X0096900Y0281000D03*
X0041900Y0246000D03*
X0011900Y0246000D03*
X0011900Y0271000D03*
X0021900Y0271000D03*
D12*
X0051900Y0271000D03*
X0081900Y0271000D03*
D13*
X0071900Y0271000D03*
X0041900Y0271000D03*
D14*
X0056900Y0246000D03*
X0056900Y0231000D03*
X0046900Y0231000D03*
X0046900Y0216000D03*
X0056900Y0216000D03*
X0056900Y0201000D03*
X0046900Y0201000D03*
X0046900Y0186000D03*
X0056900Y0186000D03*
X0056900Y0171000D03*
X0046900Y0171000D03*
X0046900Y0156000D03*
X0056900Y0156000D03*
X0096900Y0156000D03*
X0106900Y0156000D03*
X0106900Y0171000D03*
X0096900Y0171000D03*
X0096900Y0186000D03*
X0106900Y0186000D03*
X0106900Y0201000D03*
X0096900Y0201000D03*
X0096900Y0216000D03*
X0106900Y0216000D03*
X0106900Y0231000D03*
X0096900Y0231000D03*
X0096900Y0246000D03*
X0106900Y0246000D03*
X0136900Y0266000D03*
X0151900Y0266000D03*
X0146900Y0246000D03*
X0156900Y0241000D03*
X0146900Y0231000D03*
X0156900Y0226000D03*
X0146900Y0216000D03*
X0156900Y0211000D03*
X0146900Y0201000D03*
X0156900Y0196000D03*
X0146900Y0186000D03*
X0156900Y0181000D03*
X0146900Y0171000D03*
X0156900Y0166000D03*
X0146900Y0156000D03*
X0156900Y0151000D03*
X0156900Y0136000D03*
X0156900Y0121000D03*
X0156900Y0106000D03*
X0146900Y0096000D03*
X0156900Y0091000D03*
X0196900Y0091000D03*
X0196900Y0106000D03*
X0196900Y0121000D03*
X0196900Y0136000D03*
X0196900Y0151000D03*
X0196900Y0166000D03*
X0196900Y0181000D03*
X0196900Y0196000D03*
X0196900Y0211000D03*
X0196900Y0226000D03*
X0196900Y0241000D03*
X0151900Y0306000D03*
X0136900Y0306000D03*
X0006900Y0231000D03*
X0006900Y0216000D03*
X0006900Y0201000D03*
X0006900Y0186000D03*
X0006900Y0171000D03*
X0006900Y0156000D03*
X0106900Y0096000D03*
D15*
X0164300Y0071000D02*
X0169500Y0071000D01*
X0169500Y0061000D02*
X0164300Y0061000D01*
X0164300Y0051000D02*
X0169500Y0051000D01*
X0169500Y0041000D02*
X0164300Y0041000D01*
X0164300Y0031000D02*
X0169500Y0031000D01*
X0169500Y0021000D02*
X0164300Y0021000D01*
X0164300Y0011000D02*
X0169500Y0011000D01*
X0194300Y0011000D02*
X0199500Y0011000D01*
X0199500Y0021000D02*
X0194300Y0021000D01*
X0194300Y0031000D02*
X0199500Y0031000D01*
X0199500Y0041000D02*
X0194300Y0041000D01*
X0194300Y0051000D02*
X0199500Y0051000D01*
X0199500Y0061000D02*
X0194300Y0061000D01*
X0194300Y0071000D02*
X0199500Y0071000D01*
X0234300Y0071000D02*
X0239500Y0071000D01*
X0239500Y0061000D02*
X0234300Y0061000D01*
X0234300Y0051000D02*
X0239500Y0051000D01*
X0239500Y0041000D02*
X0234300Y0041000D01*
X0234300Y0031000D02*
X0239500Y0031000D01*
X0239500Y0021000D02*
X0234300Y0021000D01*
X0234300Y0011000D02*
X0239500Y0011000D01*
X0264300Y0011000D02*
X0269500Y0011000D01*
X0269500Y0021000D02*
X0264300Y0021000D01*
X0264300Y0031000D02*
X0269500Y0031000D01*
X0269500Y0041000D02*
X0264300Y0041000D01*
X0264300Y0051000D02*
X0269500Y0051000D01*
X0269500Y0061000D02*
X0264300Y0061000D01*
X0264300Y0071000D02*
X0269500Y0071000D01*
X0326900Y0058600D02*
X0326900Y0053400D01*
X0336900Y0053400D02*
X0336900Y0058600D01*
X0346900Y0058600D02*
X0346900Y0053400D01*
X0356900Y0053400D02*
X0356900Y0058600D01*
X0366900Y0058600D02*
X0366900Y0053400D01*
X0376900Y0053400D02*
X0376900Y0058600D01*
X0386900Y0058600D02*
X0386900Y0053400D01*
X0386900Y0028600D02*
X0386900Y0023400D01*
X0376900Y0023400D02*
X0376900Y0028600D01*
X0366900Y0028600D02*
X0366900Y0023400D01*
X0356900Y0023400D02*
X0356900Y0028600D01*
X0346900Y0028600D02*
X0346900Y0023400D01*
X0336900Y0023400D02*
X0336900Y0028600D01*
X0326900Y0028600D02*
X0326900Y0023400D01*
X0326900Y0083400D02*
X0326900Y0088600D01*
X0336900Y0088600D02*
X0336900Y0083400D01*
X0346900Y0083400D02*
X0346900Y0088600D01*
X0356900Y0088600D02*
X0356900Y0083400D01*
X0366900Y0083400D02*
X0366900Y0088600D01*
X0376900Y0088600D02*
X0376900Y0083400D01*
X0386900Y0083400D02*
X0386900Y0088600D01*
X0386900Y0113400D02*
X0386900Y0118600D01*
X0376900Y0118600D02*
X0376900Y0113400D01*
X0366900Y0113400D02*
X0366900Y0118600D01*
X0356900Y0118600D02*
X0356900Y0113400D01*
X0346900Y0113400D02*
X0346900Y0118600D01*
X0336900Y0118600D02*
X0336900Y0113400D01*
X0326900Y0113400D02*
X0326900Y0118600D01*
X0326900Y0153400D02*
X0326900Y0158600D01*
X0336900Y0158600D02*
X0336900Y0153400D01*
X0346900Y0153400D02*
X0346900Y0158600D01*
X0356900Y0158600D02*
X0356900Y0153400D01*
X0366900Y0153400D02*
X0366900Y0158600D01*
X0376900Y0158600D02*
X0376900Y0153400D01*
X0386900Y0153400D02*
X0386900Y0158600D01*
X0386900Y0183400D02*
X0386900Y0188600D01*
X0376900Y0188600D02*
X0376900Y0183400D01*
X0366900Y0183400D02*
X0366900Y0188600D01*
X0356900Y0188600D02*
X0356900Y0183400D01*
X0346900Y0183400D02*
X0346900Y0188600D01*
X0336900Y0188600D02*
X0336900Y0183400D01*
X0326900Y0183400D02*
X0326900Y0188600D01*
X0326900Y0213400D02*
X0326900Y0218600D01*
X0336900Y0218600D02*
X0336900Y0213400D01*
X0346900Y0213400D02*
X0346900Y0218600D01*
X0356900Y0218600D02*
X0356900Y0213400D01*
X0366900Y0213400D02*
X0366900Y0218600D01*
X0376900Y0218600D02*
X0376900Y0213400D01*
X0386900Y0213400D02*
X0386900Y0218600D01*
X0386900Y0243400D02*
X0386900Y0248600D01*
X0376900Y0248600D02*
X0376900Y0243400D01*
X0366900Y0243400D02*
X0366900Y0248600D01*
X0356900Y0248600D02*
X0356900Y0243400D01*
X0346900Y0243400D02*
X0346900Y0248600D01*
X0336900Y0248600D02*
X0336900Y0243400D01*
X0326900Y0243400D02*
X0326900Y0248600D01*
X0326900Y0273400D02*
X0326900Y0278600D01*
X0336900Y0278600D02*
X0336900Y0273400D01*
X0346900Y0273400D02*
X0346900Y0278600D01*
X0356900Y0278600D02*
X0356900Y0273400D01*
X0366900Y0273400D02*
X0366900Y0278600D01*
X0376900Y0278600D02*
X0376900Y0273400D01*
X0386900Y0273400D02*
X0386900Y0278600D01*
X0386900Y0303400D02*
X0386900Y0308600D01*
X0376900Y0308600D02*
X0376900Y0303400D01*
X0366900Y0303400D02*
X0366900Y0308600D01*
X0356900Y0308600D02*
X0356900Y0303400D01*
X0346900Y0303400D02*
X0346900Y0308600D01*
X0336900Y0308600D02*
X0336900Y0303400D01*
X0326900Y0303400D02*
X0326900Y0308600D01*
D16*
X0116900Y0304000D02*
X0116900Y0298000D01*
X0106900Y0298000D02*
X0106900Y0304000D01*
X0096900Y0304000D02*
X0096900Y0298000D01*
X0066900Y0298000D02*
X0066900Y0304000D01*
X0056900Y0304000D02*
X0056900Y0298000D01*
X0046900Y0298000D02*
X0046900Y0304000D01*
X0046100Y0084900D02*
X0052100Y0084900D01*
X0037700Y0084900D02*
X0031700Y0084900D01*
X0012100Y0084900D02*
X0006100Y0084900D01*
X0006100Y0067100D02*
X0012100Y0067100D01*
X0012100Y0054900D02*
X0006100Y0054900D01*
X0006100Y0037100D02*
X0012100Y0037100D01*
X0012100Y0024900D02*
X0006100Y0024900D01*
X0006100Y0007100D02*
X0012100Y0007100D01*
X0031700Y0007100D02*
X0037700Y0007100D01*
X0046100Y0007100D02*
X0052100Y0007100D01*
X0052100Y0024900D02*
X0046100Y0024900D01*
X0037700Y0024900D02*
X0031700Y0024900D01*
X0031700Y0037100D02*
X0037700Y0037100D01*
X0046100Y0037100D02*
X0052100Y0037100D01*
X0071700Y0037100D02*
X0077700Y0037100D01*
X0086100Y0037100D02*
X0092100Y0037100D01*
X0092100Y0024900D02*
X0086100Y0024900D01*
X0077700Y0024900D02*
X0071700Y0024900D01*
X0071700Y0007100D02*
X0077700Y0007100D01*
X0086100Y0007100D02*
X0092100Y0007100D01*
X0111700Y0007100D02*
X0117700Y0007100D01*
X0117700Y0024900D02*
X0111700Y0024900D01*
X0111700Y0037100D02*
X0117700Y0037100D01*
X0117700Y0054900D02*
X0111700Y0054900D01*
X0111700Y0067100D02*
X0117700Y0067100D01*
X0117700Y0084900D02*
X0111700Y0084900D01*
X0092100Y0084900D02*
X0086100Y0084900D01*
X0077700Y0084900D02*
X0071700Y0084900D01*
X0071700Y0067100D02*
X0077700Y0067100D01*
X0086100Y0067100D02*
X0092100Y0067100D01*
X0092100Y0054900D02*
X0086100Y0054900D01*
X0077700Y0054900D02*
X0071700Y0054900D01*
X0052100Y0054900D02*
X0046100Y0054900D01*
X0037700Y0054900D02*
X0031700Y0054900D01*
X0031700Y0067100D02*
X0037700Y0067100D01*
X0046100Y0067100D02*
X0052100Y0067100D01*
D17*
X0021900Y0298031D02*
X0021900Y0303969D01*
X0011900Y0303969D02*
X0011900Y0298031D01*
D18*
X0011900Y0301000D02*
X0029712Y0283188D01*
X0030025Y0283500D01*
X0030025Y0284125D01*
X0046900Y0301000D01*
X0056900Y0301000D02*
X0056900Y0276000D01*
X0051900Y0271000D01*
X0041900Y0271000D02*
X0029712Y0283188D01*
X0011900Y0271000D02*
X0021275Y0261625D01*
X0021275Y0059750D01*
X0041900Y0059750D01*
X0048775Y0066625D01*
X0049100Y0067100D01*
X0053150Y0073500D02*
X0053150Y0081000D01*
X0049400Y0084750D01*
X0049100Y0084900D01*
X0041900Y0096000D02*
X0041900Y0111000D01*
X0041900Y0246000D01*
X0051900Y0241000D02*
X0051900Y0181625D01*
X0052212Y0181312D01*
X0051900Y0181000D01*
X0051900Y0135375D01*
X0047525Y0131000D01*
X0047525Y0109750D01*
X0056900Y0100375D01*
X0056900Y0033500D01*
X0071900Y0018500D01*
X0066900Y0028500D02*
X0066900Y0041625D01*
X0075650Y0041625D01*
X0088775Y0054750D01*
X0089100Y0054900D01*
X0096900Y0059125D02*
X0089400Y0066625D01*
X0089100Y0067100D01*
X0096900Y0059125D02*
X0096900Y0044750D01*
X0089400Y0037250D01*
X0089100Y0037100D01*
X0089400Y0025375D02*
X0089100Y0024900D01*
X0089400Y0025375D02*
X0104400Y0040375D01*
X0104400Y0081000D01*
X0108150Y0080375D02*
X0108150Y0082250D01*
X0086275Y0104125D01*
X0086275Y0121000D01*
X0072525Y0134750D01*
X0072525Y0243500D01*
X0086275Y0236000D02*
X0088150Y0234125D01*
X0088150Y0179750D01*
X0096900Y0171000D01*
X0106900Y0171000D02*
X0106900Y0186000D01*
X0101900Y0191000D01*
X0101900Y0232875D01*
X0125650Y0256625D01*
X0141900Y0256625D01*
X0141900Y0272250D01*
X0155650Y0286000D01*
X0161900Y0286000D01*
X0161900Y0260375D01*
X0156900Y0262875D02*
X0156900Y0281000D01*
X0151275Y0286625D02*
X0126900Y0286625D01*
X0101900Y0261625D01*
X0101900Y0236000D01*
X0096900Y0231000D01*
X0106900Y0231000D02*
X0118150Y0219750D01*
X0118150Y0166000D01*
X0118150Y0160375D01*
X0102525Y0144750D01*
X0102525Y0100375D01*
X0106900Y0096000D01*
X0106275Y0102250D02*
X0116900Y0112875D01*
X0116900Y0136000D01*
X0106900Y0136000D02*
X0123775Y0152875D01*
X0123775Y0154750D01*
X0129400Y0159125D02*
X0151900Y0136625D01*
X0151900Y0126000D01*
X0156900Y0121000D01*
X0146900Y0126000D02*
X0146900Y0096000D01*
X0146900Y0071000D01*
X0166900Y0051000D01*
X0176900Y0051000D02*
X0176900Y0091625D01*
X0167525Y0084125D02*
X0167525Y0201000D01*
X0167525Y0206625D02*
X0173150Y0201000D01*
X0167525Y0206625D02*
X0167525Y0208500D01*
X0163775Y0211000D02*
X0163775Y0157250D01*
X0163775Y0152250D02*
X0151900Y0164125D01*
X0151900Y0174125D01*
X0140025Y0186000D01*
X0140025Y0246000D01*
X0156900Y0262875D01*
X0168150Y0260375D02*
X0155025Y0247250D01*
X0156900Y0241000D02*
X0161900Y0236000D01*
X0161900Y0201000D01*
X0156900Y0196000D01*
X0146900Y0186000D02*
X0141900Y0191000D01*
X0141900Y0211000D01*
X0146900Y0216000D01*
X0146900Y0231000D01*
X0146900Y0246000D01*
X0145650Y0256625D02*
X0133150Y0244125D01*
X0133150Y0242875D01*
X0133150Y0177875D01*
X0151900Y0159125D01*
X0151900Y0156000D01*
X0156900Y0151000D01*
X0145025Y0148500D02*
X0156900Y0136625D01*
X0156900Y0136000D01*
X0146900Y0126000D02*
X0136900Y0136000D01*
X0131275Y0125375D02*
X0131275Y0152250D01*
X0129400Y0159125D02*
X0129400Y0195375D01*
X0126900Y0197875D01*
X0122525Y0197875D02*
X0121900Y0197875D01*
X0127525Y0192250D01*
X0127525Y0106625D01*
X0143150Y0091000D01*
X0143150Y0082875D02*
X0131275Y0071000D01*
X0131275Y0069750D01*
X0127525Y0068500D02*
X0159400Y0036625D01*
X0184400Y0036625D01*
X0184400Y0040375D01*
X0196900Y0041000D02*
X0210025Y0041000D01*
X0210025Y0040375D01*
X0212525Y0037875D01*
X0217525Y0037875D01*
X0217525Y0071000D01*
X0217525Y0111625D01*
X0222837Y0116937D01*
X0222525Y0117250D01*
X0222525Y0163500D01*
X0217525Y0168500D01*
X0217525Y0203500D01*
X0212525Y0208500D02*
X0212525Y0262250D01*
X0214400Y0264125D01*
X0206900Y0271000D02*
X0206900Y0256000D01*
X0206900Y0241000D01*
X0206900Y0226000D01*
X0206900Y0211000D01*
X0206900Y0196000D01*
X0206900Y0181000D01*
X0206900Y0166000D01*
X0206900Y0151000D01*
X0206900Y0136000D01*
X0206900Y0121000D01*
X0206900Y0106000D01*
X0206900Y0091000D01*
X0201275Y0086625D02*
X0212525Y0075375D01*
X0212525Y0071000D01*
X0222525Y0061000D02*
X0222525Y0052875D01*
X0221275Y0051625D01*
X0222525Y0061000D02*
X0222525Y0101625D01*
X0226900Y0106000D01*
X0221275Y0106625D02*
X0231275Y0116625D01*
X0231275Y0136000D01*
X0233150Y0137875D01*
X0233150Y0142875D01*
X0232525Y0143500D01*
X0232525Y0190375D01*
X0230962Y0191937D01*
X0231275Y0192250D01*
X0231275Y0211000D01*
X0237525Y0217250D01*
X0237525Y0234750D01*
X0238150Y0235375D01*
X0241900Y0241000D02*
X0241900Y0256000D01*
X0241900Y0271000D01*
X0241900Y0286000D01*
X0241900Y0297875D01*
X0250025Y0297875D01*
X0251275Y0296625D01*
X0272525Y0296625D01*
X0272525Y0278500D01*
X0276900Y0274125D01*
X0276900Y0271000D01*
X0276900Y0256000D01*
X0276900Y0241000D01*
X0276900Y0226000D01*
X0276900Y0211000D01*
X0283775Y0209750D02*
X0283775Y0202875D01*
X0276900Y0196000D01*
X0272525Y0189750D02*
X0281275Y0181000D01*
X0281275Y0141000D01*
X0271275Y0131000D01*
X0271275Y0119125D01*
X0270650Y0118500D01*
X0270650Y0111000D01*
X0273150Y0108500D01*
X0273150Y0102875D01*
X0272525Y0102250D01*
X0272525Y0097250D01*
X0274400Y0095375D01*
X0273775Y0095375D01*
X0273775Y0089125D01*
X0272525Y0087875D01*
X0272525Y0081625D01*
X0276900Y0081625D01*
X0280025Y0078500D01*
X0280025Y0076000D01*
X0278775Y0074750D01*
X0278775Y0031625D01*
X0283775Y0031625D01*
X0286275Y0034125D01*
X0286275Y0035375D01*
X0290025Y0039125D01*
X0282525Y0035375D02*
X0282525Y0123500D01*
X0280650Y0125375D01*
X0276900Y0121625D02*
X0276900Y0131000D01*
X0276900Y0121625D02*
X0272525Y0117250D01*
X0272525Y0114750D01*
X0275025Y0112250D01*
X0275025Y0102875D01*
X0276900Y0101000D01*
X0271275Y0104750D02*
X0271275Y0107250D01*
X0266900Y0111625D01*
X0266900Y0121000D01*
X0258150Y0116625D02*
X0250025Y0116625D01*
X0258150Y0116625D02*
X0258150Y0143500D01*
X0256275Y0145375D01*
X0256275Y0265375D01*
X0261900Y0271000D01*
X0266900Y0267875D02*
X0266900Y0242250D01*
X0267525Y0241625D01*
X0252525Y0239125D02*
X0252525Y0141000D01*
X0254400Y0144125D02*
X0256275Y0142250D01*
X0256275Y0134125D01*
X0254400Y0132250D01*
X0248775Y0137875D02*
X0248775Y0237875D01*
X0252525Y0239125D02*
X0248775Y0242875D01*
X0248775Y0294125D01*
X0241900Y0297875D02*
X0241900Y0301000D01*
X0232525Y0302250D02*
X0232525Y0286000D01*
X0226900Y0286000D02*
X0236900Y0276000D01*
X0226900Y0271000D02*
X0211275Y0286625D01*
X0211275Y0302250D01*
X0208150Y0305375D01*
X0156900Y0305375D01*
X0156900Y0304125D01*
X0146275Y0293500D01*
X0111275Y0293500D01*
X0111275Y0306000D01*
X0108775Y0308500D01*
X0101275Y0308500D01*
X0101275Y0271000D01*
X0091900Y0261625D01*
X0091900Y0206000D01*
X0096900Y0201000D01*
X0090025Y0192875D02*
X0096900Y0186000D01*
X0090025Y0192875D02*
X0090025Y0264750D01*
X0090650Y0265375D01*
X0090650Y0272875D02*
X0090650Y0304125D01*
X0076900Y0311000D02*
X0076900Y0169750D01*
X0076900Y0164750D02*
X0090650Y0151000D01*
X0090650Y0150375D01*
X0087525Y0146625D02*
X0096900Y0146625D01*
X0096900Y0156000D01*
X0082525Y0170375D01*
X0082525Y0264750D01*
X0090650Y0272875D01*
X0096900Y0261000D02*
X0103150Y0267250D01*
X0103150Y0290375D01*
X0171900Y0290375D01*
X0171900Y0286000D01*
X0171900Y0271000D01*
X0171900Y0256000D01*
X0176275Y0249750D02*
X0164400Y0249750D01*
X0176275Y0249750D02*
X0176275Y0285375D01*
X0191900Y0301000D01*
X0203150Y0295375D02*
X0196900Y0289125D01*
X0196900Y0241000D01*
X0190025Y0243500D02*
X0190025Y0254125D01*
X0191900Y0256000D01*
X0186275Y0265375D02*
X0186275Y0236625D01*
X0196900Y0226000D01*
X0191900Y0219125D02*
X0184400Y0211625D01*
X0184400Y0141000D01*
X0180650Y0137250D02*
X0180650Y0163500D01*
X0173150Y0159750D02*
X0171275Y0161625D01*
X0171275Y0169750D01*
X0156900Y0166000D02*
X0153775Y0169125D01*
X0153775Y0177250D01*
X0151900Y0179125D01*
X0151900Y0221000D01*
X0156900Y0226000D01*
X0163775Y0211000D02*
X0176900Y0224125D01*
X0176900Y0219125D02*
X0176900Y0126000D01*
X0181900Y0121000D01*
X0191900Y0123500D02*
X0191900Y0095375D01*
X0192212Y0095062D01*
X0191900Y0094750D01*
X0191900Y0076000D01*
X0196900Y0071000D01*
X0184400Y0064125D02*
X0184400Y0060375D01*
X0180650Y0056625D01*
X0176900Y0051000D02*
X0166900Y0041000D01*
X0166900Y0031000D02*
X0160025Y0024125D01*
X0160025Y0017875D01*
X0166900Y0011000D01*
X0170650Y0006625D02*
X0122525Y0006625D01*
X0122525Y0068500D01*
X0110650Y0080375D01*
X0108150Y0080375D01*
X0121275Y0089750D02*
X0127525Y0083500D01*
X0127525Y0068500D01*
X0160025Y0066625D02*
X0160025Y0087250D01*
X0161900Y0089125D01*
X0161900Y0101000D01*
X0156900Y0106000D01*
X0135650Y0121000D02*
X0131275Y0125375D01*
X0098775Y0128500D02*
X0098775Y0117875D01*
X0091900Y0111000D01*
X0081900Y0111000D02*
X0081900Y0096000D01*
X0066900Y0075375D02*
X0066900Y0229125D01*
X0063775Y0224125D02*
X0063775Y0122875D01*
X0061900Y0121000D01*
X0057525Y0118500D02*
X0057525Y0135375D01*
X0056900Y0136000D01*
X0053775Y0128500D02*
X0053775Y0112875D01*
X0051900Y0111000D01*
X0076900Y0136000D02*
X0087525Y0146625D01*
X0061900Y0161000D02*
X0061900Y0202875D01*
X0057525Y0207250D01*
X0046900Y0201000D02*
X0046900Y0186000D01*
X0052212Y0181312D02*
X0056900Y0186000D01*
X0046900Y0171000D02*
X0046900Y0156000D01*
X0056900Y0156000D02*
X0061900Y0161000D01*
X0017525Y0136625D02*
X0017525Y0201000D01*
X0013775Y0204125D02*
X0013775Y0196000D01*
X0013150Y0195375D01*
X0011900Y0199125D02*
X0009400Y0196625D01*
X0009400Y0188500D01*
X0006900Y0186000D01*
X0007525Y0186000D01*
X0012525Y0181000D01*
X0012525Y0116000D01*
X0017525Y0111000D01*
X0017525Y0081625D01*
X0009100Y0067100D02*
X0009400Y0066625D01*
X0016588Y0059437D01*
X0016900Y0059750D01*
X0021275Y0059750D01*
X0016900Y0059125D02*
X0016900Y0029750D01*
X0016588Y0029437D01*
X0016900Y0029125D01*
X0016900Y0014750D01*
X0016588Y0014437D01*
X0016900Y0014125D01*
X0041900Y0014125D01*
X0044712Y0011312D01*
X0056900Y0023500D01*
X0056900Y0029125D01*
X0049400Y0036625D01*
X0049100Y0037100D01*
X0044712Y0011312D02*
X0048775Y0007250D01*
X0049100Y0007100D01*
X0016588Y0014437D02*
X0009400Y0007250D01*
X0009100Y0007100D01*
X0016588Y0029437D02*
X0009400Y0036625D01*
X0009100Y0037100D01*
X0016900Y0059125D02*
X0016588Y0059437D01*
X0063150Y0071625D02*
X0066900Y0075375D01*
X0016900Y0136000D02*
X0017525Y0136625D01*
X0011900Y0199125D02*
X0011900Y0202875D01*
X0006900Y0207875D01*
X0006900Y0216000D01*
X0013150Y0224750D02*
X0013150Y0204750D01*
X0013775Y0204125D01*
X0013150Y0224750D02*
X0006900Y0231000D01*
X0051900Y0241000D02*
X0056900Y0246000D01*
X0056900Y0231000D02*
X0063775Y0224125D01*
X0114400Y0209750D02*
X0114400Y0184750D01*
X0110650Y0181000D01*
X0122525Y0197875D02*
X0122525Y0232250D01*
X0129400Y0239125D01*
X0136900Y0266000D02*
X0136900Y0271000D01*
X0126900Y0281000D01*
X0103150Y0290375D02*
X0103150Y0297250D01*
X0106900Y0301000D01*
X0076900Y0311000D02*
X0292525Y0311000D01*
X0298775Y0304750D01*
X0298775Y0279125D01*
X0306900Y0271000D01*
X0300650Y0270375D02*
X0296900Y0274125D01*
X0296900Y0301000D01*
X0290650Y0307250D01*
X0287525Y0305375D02*
X0287525Y0162875D01*
X0285025Y0160375D01*
X0285025Y0057875D01*
X0286275Y0056625D01*
X0273775Y0047875D02*
X0273775Y0074750D01*
X0270650Y0077875D01*
X0270650Y0089125D01*
X0271275Y0089750D01*
X0271275Y0093500D01*
X0270650Y0094125D01*
X0270650Y0104125D01*
X0271275Y0104750D01*
X0265025Y0096625D02*
X0262525Y0099125D01*
X0262525Y0146625D01*
X0266900Y0151000D01*
X0271275Y0155375D01*
X0271275Y0182250D01*
X0258150Y0195375D01*
X0258150Y0222250D01*
X0261900Y0226000D01*
X0266900Y0211000D02*
X0265650Y0209750D01*
X0265650Y0202250D01*
X0261900Y0199125D02*
X0261900Y0195375D01*
X0275025Y0182250D01*
X0276900Y0176000D02*
X0276900Y0161000D01*
X0260650Y0174750D02*
X0266900Y0181000D01*
X0260650Y0174750D02*
X0260650Y0097250D01*
X0260025Y0096625D01*
X0260025Y0017875D01*
X0266900Y0011000D01*
X0266900Y0021000D02*
X0275650Y0029750D01*
X0275650Y0076625D01*
X0276275Y0077250D01*
X0288775Y0084125D02*
X0288775Y0128500D01*
X0290025Y0134750D02*
X0289400Y0135375D01*
X0289400Y0187875D01*
X0291275Y0189750D01*
X0291275Y0234750D01*
X0296900Y0240375D01*
X0302525Y0251625D02*
X0306900Y0256000D01*
X0302525Y0251625D02*
X0302525Y0209750D01*
X0310025Y0202250D01*
X0306900Y0196000D02*
X0302525Y0191625D01*
X0302525Y0176000D01*
X0300650Y0176000D01*
X0302525Y0176000D02*
X0302525Y0142250D01*
X0302838Y0141938D01*
X0306900Y0146000D01*
X0302838Y0141938D02*
X0302525Y0141625D01*
X0302525Y0112250D01*
X0302838Y0111937D01*
X0302525Y0111625D01*
X0302525Y0090375D01*
X0306900Y0086000D01*
X0309400Y0077875D02*
X0293775Y0093500D01*
X0293775Y0184750D01*
X0293150Y0184750D01*
X0293775Y0184750D02*
X0293775Y0187250D01*
X0295025Y0188500D01*
X0295025Y0226000D01*
X0296900Y0222875D02*
X0300650Y0226625D01*
X0300650Y0270375D01*
X0283775Y0279125D02*
X0283775Y0260375D01*
X0272525Y0275375D02*
X0272525Y0189750D01*
X0245025Y0195375D02*
X0241275Y0191625D01*
X0241275Y0102250D01*
X0236900Y0106000D02*
X0236900Y0121000D01*
X0236900Y0136000D01*
X0236900Y0151000D01*
X0236900Y0166000D01*
X0236900Y0181000D01*
X0236900Y0196000D01*
X0236900Y0211000D01*
X0239400Y0213500D01*
X0239400Y0223500D01*
X0241900Y0226000D01*
X0241900Y0241000D01*
X0233775Y0249125D02*
X0233775Y0227875D01*
X0221275Y0237250D02*
X0221275Y0196000D01*
X0226900Y0196000D02*
X0230962Y0191937D01*
X0212525Y0208500D02*
X0212525Y0168500D01*
X0214400Y0166625D01*
X0203150Y0176000D02*
X0202525Y0176000D01*
X0202525Y0289750D01*
X0203150Y0290375D01*
X0206900Y0286000D02*
X0206900Y0301000D01*
X0223150Y0305375D02*
X0230650Y0305375D01*
X0231275Y0306000D01*
X0261900Y0306000D01*
X0261900Y0301000D01*
X0272525Y0301000D01*
X0272525Y0302250D01*
X0275650Y0305375D01*
X0287525Y0305375D01*
X0276900Y0301000D02*
X0272525Y0296625D01*
X0276900Y0286000D02*
X0283775Y0279125D01*
X0272525Y0275375D02*
X0261900Y0286000D01*
X0252525Y0255375D02*
X0254400Y0253500D01*
X0254400Y0144125D01*
X0245025Y0155375D02*
X0245025Y0127875D01*
X0258150Y0116625D02*
X0258150Y0106000D01*
X0256275Y0104125D01*
X0256275Y0051000D01*
X0256275Y0048500D01*
X0249400Y0041625D01*
X0243775Y0047875D02*
X0236900Y0041000D01*
X0243775Y0047875D02*
X0243775Y0081625D01*
X0252525Y0090375D01*
X0236900Y0091000D02*
X0236900Y0106000D01*
X0236900Y0091000D02*
X0236900Y0086000D01*
X0230025Y0079125D01*
X0230025Y0017875D01*
X0236900Y0011000D01*
X0236900Y0021000D02*
X0245650Y0029750D01*
X0245650Y0053500D01*
X0247525Y0055375D01*
X0266900Y0041000D02*
X0273775Y0047875D01*
X0288775Y0084125D02*
X0346900Y0026000D01*
X0352525Y0030375D02*
X0356900Y0026000D01*
X0352525Y0030375D02*
X0352525Y0058500D01*
X0344400Y0066625D01*
X0326900Y0056000D02*
X0326900Y0086000D01*
X0326900Y0116000D01*
X0326900Y0156000D01*
X0326900Y0186000D01*
X0335025Y0187875D02*
X0336900Y0186000D01*
X0335025Y0187875D02*
X0335025Y0201625D01*
X0341275Y0204750D02*
X0336900Y0209125D01*
X0336900Y0216000D01*
X0345025Y0224125D02*
X0355650Y0234750D01*
X0355650Y0244750D01*
X0356900Y0246000D01*
X0351275Y0236625D02*
X0351275Y0258500D01*
X0321275Y0258500D01*
X0321275Y0251625D01*
X0326900Y0246000D01*
X0336900Y0246000D02*
X0336900Y0230375D01*
X0335025Y0228500D01*
X0331275Y0226625D02*
X0315025Y0242875D01*
X0311275Y0247250D02*
X0311275Y0287250D01*
X0317525Y0293500D01*
X0325025Y0293500D02*
X0325025Y0294125D01*
X0336900Y0306000D01*
X0326900Y0306000D02*
X0321275Y0300375D01*
X0321275Y0258500D01*
X0335025Y0264125D02*
X0346900Y0276000D01*
X0356900Y0276000D01*
X0366275Y0276625D02*
X0366900Y0276000D01*
X0366275Y0276625D02*
X0366275Y0293500D01*
X0370025Y0289750D02*
X0376900Y0289750D01*
X0376900Y0276000D01*
X0382525Y0271625D02*
X0382525Y0212250D01*
X0382837Y0211937D01*
X0382525Y0211625D01*
X0382525Y0160375D01*
X0382837Y0160063D01*
X0382525Y0159750D01*
X0382525Y0089750D01*
X0386275Y0086000D01*
X0386900Y0086000D01*
X0382525Y0081625D01*
X0382525Y0030375D01*
X0386900Y0026000D01*
X0361275Y0019750D02*
X0361275Y0118500D01*
X0364400Y0121625D01*
X0364400Y0153500D01*
X0366900Y0156000D01*
X0362525Y0153500D02*
X0362525Y0173500D01*
X0371275Y0182250D01*
X0371275Y0189750D01*
X0360650Y0200375D01*
X0352525Y0203500D02*
X0362525Y0213500D01*
X0362525Y0301625D01*
X0366900Y0306000D01*
X0356900Y0306000D02*
X0346275Y0295375D01*
X0376900Y0289750D02*
X0376900Y0306000D01*
X0386900Y0276000D02*
X0382525Y0271625D01*
X0371275Y0252250D02*
X0371275Y0213500D01*
X0373150Y0211625D01*
X0373150Y0189750D01*
X0376900Y0186000D01*
X0376900Y0156000D01*
X0382837Y0160063D02*
X0386900Y0156000D01*
X0371275Y0149750D02*
X0371275Y0121625D01*
X0376900Y0116000D01*
X0376900Y0086000D01*
X0356900Y0086000D02*
X0346900Y0086000D01*
X0341275Y0091625D01*
X0341275Y0162250D01*
X0336900Y0156000D02*
X0336900Y0142250D01*
X0336275Y0141625D01*
X0345025Y0131000D02*
X0351275Y0137250D01*
X0351275Y0170375D01*
X0366900Y0186000D01*
X0352525Y0178500D02*
X0352525Y0203500D01*
X0348775Y0200375D02*
X0341275Y0207875D01*
X0341275Y0252250D01*
X0324400Y0228500D02*
X0315025Y0237875D01*
X0311275Y0247250D02*
X0311275Y0215375D01*
X0306900Y0211000D01*
X0316900Y0214125D02*
X0316900Y0172250D01*
X0320650Y0161000D02*
X0306900Y0161000D01*
X0320650Y0161000D02*
X0320650Y0226625D01*
X0322525Y0223500D02*
X0324400Y0225375D01*
X0324400Y0228500D01*
X0322525Y0223500D02*
X0322525Y0199125D01*
X0327525Y0194125D01*
X0341275Y0204750D02*
X0341275Y0172875D01*
X0332525Y0164125D01*
X0332525Y0124750D01*
X0330650Y0122875D01*
X0322525Y0115375D02*
X0322525Y0105375D01*
X0322525Y0115375D02*
X0306900Y0131000D01*
X0298150Y0138500D02*
X0296900Y0139750D01*
X0296900Y0222875D01*
X0315025Y0221625D02*
X0316900Y0219750D01*
X0316900Y0214125D01*
X0331275Y0226625D02*
X0331275Y0169125D01*
X0331900Y0168500D01*
X0346900Y0177875D02*
X0346900Y0156000D01*
X0353150Y0144125D02*
X0362525Y0153500D01*
X0353150Y0144125D02*
X0353150Y0122250D01*
X0346900Y0116000D01*
X0356900Y0116000D02*
X0356900Y0129750D01*
X0306900Y0116000D02*
X0302838Y0111937D01*
X0306275Y0109750D02*
X0306275Y0101625D01*
X0306900Y0101000D01*
X0226900Y0091000D02*
X0226900Y0081000D01*
X0203775Y0054125D02*
X0196900Y0061000D01*
X0203775Y0054125D02*
X0203775Y0051625D01*
X0213775Y0041625D01*
X0212525Y0026625D02*
X0196900Y0011000D01*
X0188150Y0006625D02*
X0188150Y0186000D01*
X0188150Y0187250D01*
X0196900Y0196000D01*
X0182525Y0184125D02*
X0182525Y0219125D01*
X0176275Y0232250D02*
X0176275Y0249750D01*
X0186275Y0265375D02*
X0191900Y0271000D01*
X0206900Y0271000D02*
X0206900Y0286000D01*
X0229400Y0264125D02*
X0222525Y0257250D01*
X0222525Y0246000D01*
X0226900Y0241625D01*
X0226900Y0241000D01*
X0221275Y0242250D02*
X0216275Y0237250D01*
X0216275Y0227875D01*
X0233775Y0249125D02*
X0226900Y0256000D01*
X0171900Y0290375D02*
X0171900Y0301000D01*
X0151900Y0306000D02*
X0136900Y0306000D01*
X0182525Y0184125D02*
X0180650Y0182250D01*
X0196900Y0181000D02*
X0196900Y0166000D01*
X0191900Y0161000D01*
X0191900Y0132250D01*
X0190025Y0130375D01*
X0190025Y0027875D01*
X0196900Y0021000D01*
X0188150Y0006625D02*
X0317525Y0006625D01*
X0336900Y0026000D01*
X0226900Y0121000D02*
X0222837Y0116937D01*
X0198150Y0129750D02*
X0191900Y0123500D01*
X0196900Y0151000D02*
X0201900Y0156000D01*
X0201900Y0174750D01*
X0203150Y0176000D01*
X0226900Y0151000D02*
X0226900Y0144750D01*
X0228775Y0142875D01*
X0193775Y0096625D02*
X0192212Y0095062D01*
X0173775Y0082250D02*
X0173775Y0069750D01*
X0170650Y0066625D01*
X0160025Y0066625D01*
X0166900Y0071000D02*
X0166900Y0079125D01*
X0173150Y0082875D02*
X0173775Y0082250D01*
X0166900Y0021000D02*
X0173775Y0014125D01*
X0173775Y0009750D01*
X0170650Y0006625D01*
X0382837Y0211937D02*
X0386900Y0216000D01*
X0376900Y0216000D02*
X0376900Y0246000D01*
X0356900Y0216000D02*
X0346900Y0216000D01*
D19*
X0345025Y0224125D03*
X0335025Y0228500D03*
X0320650Y0226625D03*
X0315025Y0221625D03*
X0316900Y0214125D03*
X0310025Y0202250D03*
X0327525Y0194125D03*
X0335025Y0201625D03*
X0348775Y0200375D03*
X0360650Y0200375D03*
X0352525Y0178500D03*
X0346900Y0177875D03*
X0331900Y0168500D03*
X0341275Y0162250D03*
X0336275Y0141625D03*
X0345025Y0131000D03*
X0356900Y0129750D03*
X0371275Y0149750D03*
X0330650Y0122875D03*
X0322525Y0105375D03*
X0306275Y0109750D03*
X0288775Y0128500D03*
X0290025Y0134750D03*
X0298150Y0138500D03*
X0280650Y0125375D03*
X0254400Y0132250D03*
X0248775Y0137875D03*
X0252525Y0141000D03*
X0245025Y0127875D03*
X0250025Y0116625D03*
X0256275Y0104125D03*
X0260025Y0096625D03*
X0265025Y0096625D03*
X0274400Y0095375D03*
X0276275Y0077250D03*
X0286275Y0056625D03*
X0290025Y0039125D03*
X0282525Y0035375D03*
X0256275Y0051000D03*
X0247525Y0055375D03*
X0249400Y0041625D03*
X0222525Y0061000D03*
X0221275Y0051625D03*
X0213775Y0041625D03*
X0212525Y0026625D03*
X0184400Y0040375D03*
X0180650Y0056625D03*
X0184400Y0064125D03*
X0166900Y0079125D03*
X0173150Y0082875D03*
X0167525Y0084125D03*
X0176900Y0091625D03*
X0193775Y0096625D03*
X0201275Y0086625D03*
X0212525Y0071000D03*
X0217525Y0071000D03*
X0226900Y0081000D03*
X0241275Y0102250D03*
X0252525Y0090375D03*
X0221275Y0106625D03*
X0198150Y0129750D03*
X0191900Y0132250D03*
X0184400Y0141000D03*
X0180650Y0137250D03*
X0181900Y0121000D03*
X0145025Y0148500D03*
X0131275Y0152250D03*
X0123775Y0154750D03*
X0118150Y0166000D03*
X0110650Y0181000D03*
X0121900Y0197875D03*
X0126900Y0197875D03*
X0114400Y0209750D03*
X0086275Y0236000D03*
X0072525Y0243500D03*
X0066900Y0229125D03*
X0057525Y0207250D03*
X0017525Y0201000D03*
X0013150Y0195375D03*
X0076900Y0169750D03*
X0076900Y0164750D03*
X0090650Y0150375D03*
X0098775Y0128500D03*
X0106275Y0102250D03*
X0121275Y0089750D03*
X0104400Y0081000D03*
X0131275Y0069750D03*
X0143150Y0082875D03*
X0143150Y0091000D03*
X0135650Y0121000D03*
X0163775Y0152250D03*
X0163775Y0157250D03*
X0173150Y0159750D03*
X0180650Y0163500D03*
X0171275Y0169750D03*
X0180650Y0182250D03*
X0188150Y0186000D03*
X0203150Y0176000D03*
X0214400Y0166625D03*
X0228775Y0142875D03*
X0245025Y0155375D03*
X0275025Y0182250D03*
X0291275Y0189750D03*
X0293150Y0184750D03*
X0300650Y0176000D03*
X0316900Y0172250D03*
X0285025Y0160375D03*
X0245025Y0195375D03*
X0261900Y0199125D03*
X0265650Y0202250D03*
X0283775Y0209750D03*
X0295025Y0226000D03*
X0296900Y0240375D03*
X0311275Y0247250D03*
X0315025Y0242875D03*
X0315025Y0237875D03*
X0341275Y0252250D03*
X0335025Y0264125D03*
X0351275Y0236625D03*
X0371275Y0252250D03*
X0370025Y0289750D03*
X0366275Y0293500D03*
X0346275Y0295375D03*
X0325025Y0293500D03*
X0317525Y0293500D03*
X0290650Y0307250D03*
X0248775Y0294125D03*
X0232525Y0286000D03*
X0236900Y0276000D03*
X0229400Y0264125D03*
X0214400Y0264125D03*
X0221275Y0242250D03*
X0221275Y0237250D03*
X0216275Y0227875D03*
X0233775Y0227875D03*
X0238150Y0235375D03*
X0248775Y0237875D03*
X0267525Y0241625D03*
X0252525Y0255375D03*
X0266900Y0267875D03*
X0283775Y0260375D03*
X0300650Y0270375D03*
X0232525Y0302250D03*
X0223150Y0305375D03*
X0203150Y0295375D03*
X0203150Y0290375D03*
X0168150Y0260375D03*
X0161900Y0260375D03*
X0164400Y0249750D03*
X0155025Y0247250D03*
X0145650Y0256625D03*
X0133150Y0242875D03*
X0129400Y0239125D03*
X0090650Y0265375D03*
X0090650Y0304125D03*
X0151275Y0286625D03*
X0156900Y0281000D03*
X0190025Y0243500D03*
X0176275Y0232250D03*
X0176900Y0224125D03*
X0176900Y0219125D03*
X0182525Y0219125D03*
X0191900Y0219125D03*
X0212525Y0208500D03*
X0217525Y0203500D03*
X0221275Y0196000D03*
X0173150Y0201000D03*
X0167525Y0201000D03*
X0167525Y0208500D03*
X0061900Y0121000D03*
X0057525Y0118500D03*
X0053775Y0128500D03*
X0017525Y0081625D03*
X0053150Y0073500D03*
X0063150Y0071625D03*
X0066900Y0028500D03*
X0071900Y0018500D03*
X0309400Y0077875D03*
X0344400Y0066625D03*
X0361275Y0019750D03*
M02*
